<?xml version="1.0" encoding="utf-8"?>
<!-- Generator: Adobe Illustrator 21.0.0, SVG Export Plug-In . SVG Version: 6.00 Build 0)  -->
<svg version="1.1" id="Layer_1" xmlns="http://www.w3.org/2000/svg" xmlns:xlink="http://www.w3.org/1999/xlink" x="0px" y="0px"
	 viewBox="0 0 348 102" style="enable-background:new 0 0 348 102;" xml:space="preserve">
<style type="text/css">
	.st0{fill:#121212;}
	.st1{fill:#F7991C;}
	.st2{fill:#B0B0B5;}
</style>
<title>sdsdsdArtboard 110</title>
<g id="Menu_16_" transform="translate(178.000000, -4.000000)">
	<g id="Group-3_15_" transform="translate(0.000000, 41.000000)">
		<path id="binary_19_" class="st0" d="M-161,40.7v-5.6c2.3,3.8,7.4,6.7,14,6.7c13.9,0,23.8-10.9,23.8-26.2c0-14.9-8.7-26-23.2-26
			c-6.8,0-12.3,2.8-14.4,5.9v-27.5h-14.9v72.6H-161z M-138.4,15.8c0,8.3-5.3,12.4-11.2,12.4S-161,24-161,15.8
			c0-8.4,5.4-12.3,11.3-12.3S-138.4,7.3-138.4,15.8z M-104.1,40.7V-9.1h-15.2v49.8H-104.1z M-83,12.1c0-5,3.2-8.7,8.2-8.7
			c5.5,0,8.1,3.7,8.1,8.6v28.7h15.2V9.4c0-10.9-5.6-19.9-18.2-19.9c-5.1,0-11.2,2.3-13.9,7v-5.7h-14.7v49.8H-83V12.1z M-47.6,27
			c0,7.9,6.3,15.1,17.2,15.1c6.6,0,11.4-2.8,14-7c0,3.4,0.4,5.2,0.5,5.6h13.7c-0.1-0.5-0.6-3.8-0.6-7.7V8.6
			c0-10.2-5.9-19.3-22.1-19.3c-14.6,0-21.3,9.4-21.9,16.5l13.2,2.7c0.3-3.7,3.2-7.3,8.5-7.3c4.8,0,7.3,2.5,7.3,5.4
			c0,1.7-0.9,3-3.6,3.4l-11.7,1.8C-41.1,13.1-47.6,18.2-47.6,27z M-25.2,31.1c-4.2,0-5.9-2.5-5.9-5.1c0-3.5,2.4-5,5.6-5.5l9.4-1.5
			v2.2C-16.1,28.9-20.7,31.1-25.2,31.1z M34.3-9.1c-1-0.3-2.5-0.5-4-0.5c-4,0-10.3,1.6-12.9,7.2v-6.7H2.6v49.8h15.2V19
			c0-9.9,5.5-13.5,11.6-13.5c1.5,0,3.1,0.1,4.8,0.5V-9.1z M62.4,59.9l30.7-69H77L66,17.6L53.8-9.1h-17l21,43.1L46.4,59.9H62.4z"/>
		<polygon id="Path-Copy_19_" class="st1" points="-104.1,-12.2 -104.1,-27.5 -119.4,-27.5 -119.4,-12.2 		"/>
		<path id="STU-DIO_17_" class="st2" d="M117.7-4.1c-0.5-2.3-2.4-5.3-7.2-5.3c-3.9,0-7,3-7,6.3c0,3.2,2.1,5.1,5.2,5.8l3,0.7
			c2.1,0.4,3.2,1.8,3.2,3.3c0,1.8-1.4,3.4-4.4,3.4c-3.2,0-4.9-2.2-5.1-4.5l-2.8,0.9c0.4,3,2.8,6.3,7.9,6.3c4.5,0,7.3-3,7.3-6.3
			c0-3-2-5.2-5.5-5.9l-3.2-0.7c-1.8-0.4-2.7-1.6-2.7-3.1c0-2,1.7-3.5,4.1-3.5c3,0,4.2,2.1,4.5,3.6L117.7-4.1z M142.1-6.2v-2.7H125
			v2.7h7.1v18.4h2.9V-6.2H142.1z M158,12.7c4.3,0,7.6-2.7,7.6-7.7V-8.9h-2.9V4.9c0,3.2-1.7,5-4.7,5c-3,0-4.7-1.8-4.7-5V-8.9h-2.9V5
			C150.4,10,153.7,12.7,158,12.7z M105.6,38V22h4.4c3.9,0,7.1,2.7,7.1,8c0,5.3-3.3,7.9-7.2,7.9H105.6z M110,40.6
			c5.4,0,10.1-3.6,10.1-10.5c0-7-4.7-10.6-10.1-10.6h-7.4v21.2H110z M135,40.6V19.4h-3v21.2H135z M150,30c0-5.5,3.7-8.3,7.6-8.3
			s7.6,2.8,7.6,8.3s-3.7,8.4-7.6,8.4S150,35.5,150,30z M147,30c0,7.1,5.3,11,10.6,11s10.6-4,10.6-11s-5.3-11-10.6-11
			S147,22.9,147,30z"/>
	</g>
</g>
</svg>
