<svg width="31" height="39" viewBox="0 0 31 39" fill="none" xmlns="http://www.w3.org/2000/svg">
<path d="M15.44 0.0200043H15.28L0 1.62001V29.62L15.28 38.71L30.56 29.62V1.62001L15.44 0.0200043ZM28.56 28.47L15.28 36.37L2 28.47V16.99L15.22 24.86V26.29L6.14999 20.89V22.27L15.26 27.74V29.2L6.16 23.78V25.16L15.27 30.63L24.46 25.13V23.74V19.22L28.56 16.77V28.44V28.47ZM28.56 15.31L24.91 17.45L23.23 18.45L15.23 13.69V15.07L22.07 19.14H22.01L21.86 19.23L20.86 19.8L15.22 16.44V17.82L19.67 20.47L18.62 21.17L15.26 19.17V20.55L17.47 21.85L15.22 23.2L2.06 15.38L15.23 7.46001L28.56 15.31ZM28.56 13.92L15.21 6.05L2.01001 13.91V3.41002L15.29 2.02L28.57 3.41002V13.92H28.56Z" fill="black"/>
</svg>
